<svg width="40.939453" height="40.939697" viewBox="0 0 40.9395 40.9397" fill="none" xmlns="http://www.w3.org/2000/svg" xmlns:xlink="http://www.w3.org/1999/xlink">
	<desc>
			Created with Pixso.
	</desc>
	<defs/>
	<g opacity="0.500000">
		<circle id="Ellipse 16" r="19.962875" transform="matrix(0.999669 0.0257268 -0.0257268 0.999669 20.4697 20.4698)" fill="#FFFFFF" fill-opacity="1.000000"/>
	</g>
	<path id="Vector" d="M19.23 26.94C19.02 26.94 18.81 26.86 18.64 26.73C18.55 26.65 18.47 26.55 18.41 26.45C18.36 26.34 18.32 26.22 18.31 26.1C18.3 25.98 18.31 25.86 18.35 25.74C18.38 25.63 18.44 25.52 18.52 25.42L22.66 20.48L18.67 15.52C18.59 15.43 18.53 15.32 18.5 15.2C18.46 15.09 18.45 14.96 18.47 14.84C18.48 14.72 18.52 14.6 18.57 14.5C18.63 14.39 18.71 14.3 18.81 14.22C18.9 14.14 19.01 14.07 19.13 14.03C19.26 14 19.38 13.98 19.51 14C19.64 14.01 19.76 14.05 19.87 14.11C19.98 14.17 20.08 14.26 20.15 14.36L24.61 19.9C24.75 20.06 24.82 20.27 24.82 20.48C24.82 20.7 24.75 20.9 24.61 21.07L20 26.61C19.9 26.72 19.79 26.81 19.65 26.86C19.52 26.92 19.38 26.95 19.23 26.94Z" fill="#FFFFFF" fill-opacity="1.000000" fill-rule="nonzero"/>
</svg>
