<svg width="40.000000" height="40.000000" viewBox="0 0 40 40" fill="none" xmlns="http://www.w3.org/2000/svg" xmlns:xlink="http://www.w3.org/1999/xlink">
	<desc>
			Created with Pixso.
	</desc>
	<defs/>
	<circle id="Ellipse 6" cx="20.000000" cy="20.000000" r="20.000000" fill="#757AEF" fill-opacity="1.000000"/>
	<path id="Vector" d="M27 19.16C27 19.31 26.96 19.45 26.9 19.59C26.84 19.72 26.74 19.84 26.63 19.94L20.63 24.77C20.45 24.91 20.22 24.99 19.99 24.99C19.76 24.99 19.54 24.91 19.36 24.77L13.36 19.77C13.15 19.6 13.02 19.35 13 19.09C12.97 18.82 13.06 18.56 13.23 18.36C13.4 18.15 13.64 18.02 13.9 18C14.17 17.97 14.43 18.06 14.64 18.23C14.64 18.23 17.32 22.66 20 22.7C22.68 22.73 25.36 18.38 25.36 18.38C25.5 18.25 25.68 18.18 25.87 18.15C26.06 18.13 26.25 18.16 26.43 18.24C26.6 18.32 26.74 18.45 26.84 18.62C26.95 18.78 27 18.96 27 19.16Z" fill="#FFFFFF" fill-opacity="1.000000" fill-rule="nonzero"/>
</svg>
