<svg width="40.000000" height="40.000000" viewBox="0 0 40 40" fill="none" xmlns="http://www.w3.org/2000/svg" xmlns:xlink="http://www.w3.org/1999/xlink">
	<desc>
			Created with Pixso.
	</desc>
	<defs/>
	<circle id="Ellipse 6" cx="20.000000" cy="20.000000" r="20.000000" fill="#FFFFFF" fill-opacity="1.000000"/>
	<path id="Vector" d="M27 21.83C27 21.68 26.96 21.54 26.9 21.4C26.84 21.27 26.74 21.15 26.63 21.05L20.63 16.22C20.45 16.08 20.22 16 19.99 16C19.76 16 19.54 16.08 19.36 16.22L13.36 21.22C13.15 21.39 13.02 21.64 13 21.9C12.97 22.17 13.06 22.43 13.23 22.63C13.4 22.84 13.64 22.97 13.9 22.99C14.17 23.01 14.43 22.93 14.64 22.76L20 18.29L25.36 22.61C25.5 22.73 25.68 22.81 25.87 22.84C26.06 22.86 26.25 22.83 26.43 22.75C26.6 22.67 26.74 22.54 26.84 22.37C26.95 22.21 27 22.02 27 21.83Z" fill="#000985" fill-opacity="1.000000" fill-rule="nonzero"/>
</svg>
