<svg width="40.939453" height="40.939697" viewBox="0 0 40.9395 40.9397" fill="none" xmlns="http://www.w3.org/2000/svg" xmlns:xlink="http://www.w3.org/1999/xlink">
	<desc>
			Created with Pixso.
	</desc>
	<defs/>
	<g opacity="0.500000">
		<circle id="Ellipse 16" r="19.962875" transform="matrix(-0.999669 0.0257268 0.0257268 0.999669 20.4697 20.4698)" fill="#FFFFFF" fill-opacity="1.000000"/>
	</g>
	<path id="Vector" d="M21.7 26.94C21.91 26.94 22.12 26.86 22.29 26.73C22.38 26.65 22.46 26.55 22.52 26.45C22.57 26.34 22.61 26.22 22.62 26.1C22.63 25.98 22.62 25.86 22.58 25.74C22.55 25.63 22.49 25.52 22.41 25.42L18.27 20.48L22.26 15.52C22.34 15.43 22.4 15.32 22.43 15.2C22.46 15.09 22.48 14.96 22.46 14.84C22.45 14.72 22.41 14.6 22.36 14.5C22.3 14.39 22.22 14.3 22.12 14.22C22.03 14.14 21.92 14.07 21.79 14.03C21.67 14 21.55 13.98 21.42 14C21.29 14.01 21.17 14.05 21.06 14.11C20.95 14.17 20.85 14.26 20.78 14.36L16.32 19.9C16.18 20.06 16.11 20.27 16.11 20.48C16.11 20.7 16.18 20.9 16.32 21.07L20.93 26.61C21.03 26.72 21.14 26.81 21.28 26.86C21.41 26.92 21.55 26.95 21.7 26.94Z" fill="#FFFFFF" fill-opacity="1.000000" fill-rule="nonzero"/>
</svg>
