<svg width="157.000000" height="162.709076" viewBox="0 0 157 162.709" fill="none" xmlns="http://www.w3.org/2000/svg" xmlns:xlink="http://www.w3.org/1999/xlink">
	<desc>
			Created with Pixso.
	</desc>
	<defs>
		<linearGradient x1="81.139389" y1="26.000000" x2="81.139389" y2="138.278778" id="paint_linear_6_96_0" gradientUnits="userSpaceOnUse">
			<stop stop-color="#040A57"/>
			<stop offset="1.000000" stop-color="#3A23E6"/>
		</linearGradient>
	</defs>
	<g opacity="0.100000">
		<circle id="Ellipse 13" cx="100.861328" cy="106.569702" r="56.139393" fill="#07086C" fill-opacity="1.000000"/>
	</g>
	<g opacity="0.100000">
		<circle id="Ellipse 14" cx="53.285156" cy="97.054504" r="53.284847" fill="#07086C" fill-opacity="1.000000"/>
	</g>
	<g opacity="0.100000">
		<circle id="Ellipse 15" cx="90.394531" cy="53.284851" r="53.284847" fill="#07086C" fill-opacity="1.000000"/>
	</g>
	<circle id="Ellipse 12" cx="81.139648" cy="82.139404" r="56.139393" fill="#07086C" fill-opacity="1.000000"/>
	<circle id="Ellipse 12" cx="81.139648" cy="82.139404" r="56.139393" fill="url(#paint_linear_6_96_0)" fill-opacity="1.000000"/>
	<path id="Vector" d="M91.67 76.52C94.21 72.87 95.85 68.26 96.06 64.28L97.54 64.28C98.01 64.28 98.39 63.9 98.39 63.43L98.39 57.85C98.39 57.38 98.01 57 97.54 57L63.85 57C63.38 57 63 57.38 63 57.85L63 63.43C63 63.9 63.38 64.28 63.85 64.28L65.33 64.28C65.54 68.26 67.18 72.87 69.72 76.52C71.41 78.95 73.36 80.81 75.44 82C73.36 83.18 71.41 85.04 69.72 87.47C67.18 91.12 65.54 95.73 65.33 99.71L63.85 99.71C63.38 99.71 63 100.09 63 100.56L63 106.14C63 106.61 63.38 107 63.85 107L97.54 107C98.01 107 98.39 106.61 98.39 106.14L98.39 100.56C98.39 100.09 98.01 99.71 97.54 99.71L96.06 99.71C95.85 95.73 94.21 91.12 91.67 87.47C89.98 85.04 88.03 83.18 85.95 82C88.03 80.81 89.98 78.95 91.67 76.52ZM64.7 62.58L64.7 58.7L96.69 58.7L96.69 62.58L64.7 62.58ZM96.69 101.41L96.69 105.29L64.7 105.29L64.7 101.41L96.69 101.41ZM83.65 81.2C82.93 81.45 82.93 82.55 83.65 82.8C86.04 83.7 88.33 85.65 90.27 88.44L90.27 88.44C92.62 91.82 94.14 96.06 94.35 99.71L67.04 99.71C67.25 96.06 68.77 91.82 71.12 88.44C73.06 85.65 75.35 83.69 77.73 82.8C78.45 82.55 78.45 81.45 77.73 81.2C75.35 80.3 73.06 78.34 71.12 75.55C68.77 72.17 67.25 67.93 67.04 64.28L94.35 64.28C94.14 67.93 92.62 72.17 90.27 75.55C88.33 78.34 86.04 80.3 83.65 81.2Z" fill="#FFFFFF" fill-opacity="1.000000" fill-rule="nonzero"/>
	<path id="Vector" d="M69.81 97.39C69.81 97.87 70.19 98.25 70.66 98.25L90.73 98.25C91.2 98.25 91.58 97.87 91.58 97.39C91.58 94.43 89.16 92.01 86.2 92.01L75.19 92.01C72.22 92.01 69.81 94.43 69.81 97.39ZM89.77 96.54L71.62 96.54C72 94.92 73.46 93.72 75.19 93.72L86.2 93.72C87.93 93.72 89.39 94.92 89.77 96.54Z" fill="#FFFFFF" fill-opacity="1.000000" fill-rule="nonzero"/>
	<path id="Vector" d="M89.56 67.59L71.83 67.59C71.36 67.59 70.98 67.97 70.98 68.44C70.98 73.77 75.31 80.21 80.69 80.21C86.08 80.21 90.41 73.77 90.41 68.44C90.41 67.97 90.03 67.59 89.56 67.59ZM80.69 78.51C76.65 78.51 73.15 73.64 72.73 69.29L88.66 69.29C88.24 73.64 84.74 78.51 80.69 78.51Z" fill="#FFFFFF" fill-opacity="1.000000" fill-rule="nonzero"/>
	<path id="Vector" d="M80.7 84.27C81.16 84.27 81.55 83.89 81.55 83.41L81.55 82C81.55 81.52 81.16 81.14 80.7 81.14C80.22 81.14 79.84 81.52 79.84 82L79.84 83.41C79.84 83.89 80.22 84.27 80.7 84.27Z" fill="#FFFFFF" fill-opacity="1.000000" fill-rule="nonzero"/>
	<path id="Vector" d="M79.84 88.08C79.84 88.55 80.22 88.93 80.7 88.93C81.16 88.93 81.55 88.55 81.55 88.08L81.55 87.1C81.55 86.63 81.16 86.24 80.7 86.24C80.22 86.24 79.84 86.63 79.84 87.1L79.84 88.08Z" fill="#FFFFFF" fill-opacity="1.000000" fill-rule="nonzero"/>
</svg>
