<svg width="157.000000" height="162.709076" viewBox="0 0 157 162.709" fill="none" xmlns="http://www.w3.org/2000/svg" xmlns:xlink="http://www.w3.org/1999/xlink">
	<desc>
			Created with Pixso.
	</desc>
	<defs>
		<linearGradient x1="80.878647" y1="25.690918" x2="80.878647" y2="137.969696" id="paint_linear_6_84_0" gradientUnits="userSpaceOnUse">
			<stop stop-color="#040A57"/>
			<stop offset="1.000000" stop-color="#3A23E6"/>
		</linearGradient>
	</defs>
	<g opacity="0.100000">
		<circle id="Ellipse 13" cx="100.861328" cy="106.569702" r="56.139393" fill="#07086C" fill-opacity="1.000000"/>
	</g>
	<g opacity="0.100000">
		<circle id="Ellipse 14" cx="53.285156" cy="97.054504" r="53.284847" fill="#07086C" fill-opacity="1.000000"/>
	</g>
	<g opacity="0.100000">
		<circle id="Ellipse 15" cx="90.394531" cy="53.284851" r="53.284847" fill="#07086C" fill-opacity="1.000000"/>
	</g>
	<circle id="Ellipse 12" cx="80.878906" cy="81.830322" r="56.139393" fill="#07086C" fill-opacity="1.000000"/>
	<circle id="Ellipse 12" cx="80.878906" cy="81.830322" r="56.139393" fill="url(#paint_linear_6_84_0)" fill-opacity="1.000000"/>
	<path id="Vector" d="M65.66 101.83L67.33 101.83L67.33 103.5L65.66 103.5L65.66 101.83Z" fill="#FFFFFF" fill-opacity="1.000000" fill-rule="evenodd"/>
	<path id="Vector" d="M84.83 91.83L70.66 91.83L70.66 79.33C70.66 79.11 70.57 78.9 70.42 78.74C70.26 78.58 70.05 78.49 69.83 78.49L54.83 78.49C54.61 78.49 54.39 78.58 54.24 78.74C54.08 78.9 53.99 79.11 53.99 79.33L53.99 106C53.99 106.22 54.08 106.43 54.24 106.58C54.39 106.74 54.61 106.83 54.83 106.83L84.83 106.83C85.05 106.83 85.26 106.74 85.42 106.58C85.57 106.43 85.66 106.22 85.66 106L85.66 92.66C85.66 92.44 85.57 92.23 85.42 92.07C85.26 91.92 85.05 91.83 84.83 91.83ZM75.66 93.49L78.99 93.49L78.99 96.83L75.66 96.83L75.66 93.49ZM60.66 80.16L63.99 80.16L63.99 83.49L60.66 83.49L60.66 80.16ZM55.66 80.16L58.99 80.16L58.99 84.33C58.99 84.55 59.08 84.76 59.24 84.92C59.39 85.07 59.61 85.16 59.83 85.16L64.83 85.16C65.05 85.16 65.26 85.07 65.42 84.92C65.57 84.76 65.66 84.55 65.66 84.33L65.66 80.16L68.99 80.16L68.99 91.83L55.66 91.83L55.66 80.16ZM60.66 93.49L63.99 93.49L63.99 96.83L60.66 96.83L60.66 93.49ZM55.66 93.49L58.99 93.49L58.99 97.66C58.99 97.88 59.08 98.09 59.24 98.25C59.39 98.41 59.61 98.49 59.83 98.49L64.83 98.49C65.05 98.49 65.26 98.41 65.42 98.25C65.57 98.09 65.66 97.88 65.66 97.66L65.66 93.49L68.99 93.49L68.99 105.16L55.66 105.16L55.66 93.49ZM83.99 105.16L70.66 105.16L70.66 93.49L73.99 93.49L73.99 97.66C73.99 97.88 74.08 98.09 74.24 98.25C74.39 98.41 74.61 98.49 74.83 98.49L79.83 98.49C80.05 98.49 80.26 98.41 80.42 98.25C80.57 98.09 80.66 97.88 80.66 97.66L80.66 93.49L83.99 93.49L83.99 105.16Z" fill="#FFFFFF" fill-opacity="1.000000" fill-rule="nonzero"/>
	<path id="Vector" d="M80.66 101.83L82.33 101.83L82.33 103.5L80.66 103.5L80.66 101.83Z" fill="#FFFFFF" fill-opacity="1.000000" fill-rule="evenodd"/>
	<path id="Vector" d="M65.66 88.49L67.33 88.49L67.33 90.16L65.66 90.16L65.66 88.49Z" fill="#FFFFFF" fill-opacity="1.000000" fill-rule="evenodd"/>
	<path id="Vector" d="M102.97 66.8C103.03 66.82 103.1 66.83 103.16 66.83C103.31 66.83 103.45 66.79 103.58 66.72C103.7 66.64 103.81 66.54 103.88 66.41C103.96 66.28 104 66.13 103.99 65.98L103.99 62.66C103.99 62.47 103.93 62.29 103.82 62.15C103.7 62 103.54 61.9 103.36 61.85L79.19 56.02C79.06 55.99 78.93 55.99 78.8 56.02L54.63 61.85C54.45 61.9 54.29 62 54.17 62.15C54.06 62.29 53.99 62.47 53.99 62.66L53.99 65.97C53.99 66.15 54.04 66.32 54.14 66.46C54.23 66.6 54.37 66.71 54.53 66.77C54.68 66.83 54.86 66.84 55.02 66.8L56.49 66.45L56.49 76.83L58.16 76.83L58.16 66.05L78.99 61.02L99.83 66.05L99.83 105.16L94.83 105.16L94.83 72.66C94.83 72.44 94.74 72.23 94.58 72.07C94.43 71.92 94.21 71.83 93.99 71.83L63.99 71.83C63.77 71.83 63.56 71.92 63.41 72.07C63.25 72.23 63.16 72.44 63.16 72.66L63.16 75.99C63.16 76.22 63.25 76.43 63.41 76.58C63.56 76.74 63.77 76.83 63.99 76.83L93.16 76.83L93.16 78.49L72.33 78.49L72.33 80.16L93.16 80.16L93.16 81.83L72.33 81.83L72.33 83.49L93.16 83.49L93.16 85.16L72.33 85.16L72.33 86.83L93.16 86.83L93.16 105.16L87.33 105.16L87.33 106.83L103.99 106.83L103.99 105.16L101.49 105.16L101.49 66.45L102.97 66.8ZM64.83 75.16L64.83 73.49L93.16 73.49L93.16 75.16L64.83 75.16ZM78.99 59.33C78.93 59.33 78.86 59.34 78.8 59.35L55.66 64.94L55.66 63.32L78.99 57.69L102.33 63.32L102.33 64.94L79.19 59.35C79.13 59.34 79.06 59.33 78.99 59.33Z" fill="#FFFFFF" fill-opacity="1.000000" fill-rule="nonzero"/>
	<path id="Vector" d="M80.66 69.33C81.32 69.33 81.96 69.06 82.43 68.6C82.9 68.13 83.16 67.49 83.16 66.83C83.16 66.17 82.9 65.53 82.43 65.06C81.96 64.59 81.32 64.33 80.66 64.33L77.33 64.33C76.66 64.33 76.03 64.59 75.56 65.06C75.09 65.53 74.83 66.17 74.83 66.83C74.83 67.49 75.09 68.13 75.56 68.6C76.03 69.06 76.66 69.33 77.33 69.33L80.66 69.33ZM76.49 66.83C76.49 66.61 76.58 66.4 76.74 66.24C76.89 66.08 77.11 65.99 77.33 65.99L80.66 65.99C80.88 65.99 81.09 66.08 81.25 66.24C81.41 66.4 81.49 66.61 81.49 66.83C81.49 67.05 81.41 67.26 81.25 67.42C81.09 67.57 80.88 67.66 80.66 67.66L77.33 67.66C77.11 67.66 76.89 67.57 76.74 67.42C76.58 67.26 76.49 67.05 76.49 66.83Z" fill="#FFFFFF" fill-opacity="1.000000" fill-rule="nonzero"/>
</svg>
