<svg width="157.000000" height="162.709106" viewBox="0 0 157 162.709" fill="none" xmlns="http://www.w3.org/2000/svg" xmlns:xlink="http://www.w3.org/1999/xlink">
	<desc>
			Created with Pixso.
	</desc>
	<defs>
		<linearGradient x1="81.139389" y1="26.000000" x2="81.139389" y2="138.278778" id="paint_linear_6_24_0" gradientUnits="userSpaceOnUse">
			<stop stop-color="#040A57"/>
			<stop offset="1.000000" stop-color="#3A23E6"/>
		</linearGradient>
	</defs>
	<g opacity="0.100000">
		<circle id="Ellipse 13" cx="100.861328" cy="106.569702" r="56.139393" fill="#07086C" fill-opacity="1.000000"/>
	</g>
	<g opacity="0.100000">
		<circle id="Ellipse 14" cx="53.285156" cy="97.054504" r="53.284847" fill="#07086C" fill-opacity="1.000000"/>
	</g>
	<g opacity="0.100000">
		<circle id="Ellipse 15" cx="90.394531" cy="53.284851" r="53.284847" fill="#07086C" fill-opacity="1.000000"/>
	</g>
	<circle id="Ellipse 12" cx="81.139648" cy="82.139404" r="56.139393" fill="#07086C" fill-opacity="1.000000"/>
	<circle id="Ellipse 12" cx="81.139648" cy="82.139404" r="56.139393" fill="url(#paint_linear_6_24_0)" fill-opacity="1.000000"/>
	<path id="path1784" d="M56.42 65C55.09 65 54 66.05 54 67.4L54 97.91C54 99.23 55.08 100.32 56.42 100.32L82.2 100.32L80.12 103.9C79.76 104.51 80.33 105.25 81.02 105.08L84.65 104.13L85.62 107.75C85.81 108.44 86.75 108.56 87.11 107.94L91.55 100.32L94.28 100.32L98.72 107.94C99.08 108.56 100.02 108.44 100.2 107.75L101.18 104.13L104.81 105.08C105.5 105.26 106.08 104.51 105.71 103.9L103.62 100.31C104.87 100.19 105.82 99.15 105.82 97.91L105.82 67.4C105.82 66.06 104.72 65 103.39 65L56.42 65ZM56.42 66.6L103.39 66.6C103.85 66.6 104.2 66.96 104.2 67.4L104.2 97.91C104.2 98.36 103.85 98.71 103.39 98.71L102.69 98.71L99.89 93.9C100.59 92.72 100.98 91.34 100.98 89.88C100.98 85.45 97.35 81.85 92.89 81.85C88.42 81.85 84.79 85.45 84.79 89.88C84.79 91.36 85.2 92.76 85.91 93.95L83.13 98.71L56.42 98.71C55.98 98.71 55.61 98.37 55.61 97.91L55.61 67.4C55.61 66.96 55.96 66.6 56.42 66.6ZM74.24 69.81C73.16 69.81 73.16 71.39 74.24 71.41L85.58 71.41C86.66 71.41 86.66 69.83 85.58 69.81L74.24 69.81ZM61.28 75.43L98.53 75.43C99.62 75.43 99.62 73.83 98.53 73.83L61.28 73.83C60.2 73.83 60.2 75.43 61.28 75.43ZM61.28 77.84C60.2 77.84 60.2 79.44 61.28 79.44L98.53 79.44C99.62 79.44 99.62 77.84 98.53 77.84L61.28 77.84ZM92.89 83.46C96.44 83.46 99.37 86.32 99.37 89.88C99.37 93.44 96.44 96.3 92.89 96.3C89.3 96.3 86.41 93.44 86.41 89.88C86.41 86.32 89.3 83.46 92.89 83.46ZM92.15 85.29L91.21 87.64L88.76 87.84C88.06 87.9 87.78 88.81 88.31 89.28L90.17 90.95L89.61 93.42C89.45 94.13 90.19 94.7 90.79 94.31L92.89 92.99L94.98 94.31C95.58 94.69 96.33 94.13 96.16 93.42L95.6 90.94L97.46 89.28C97.99 88.81 97.71 87.9 97.01 87.84L94.56 87.63L93.61 85.28C93.49 84.97 93.22 84.78 92.88 84.78C92.54 84.78 92.29 84.97 92.15 85.29ZM92.88 87.73L93.29 88.73C93.4 89.01 93.66 89.21 93.95 89.23L94.99 89.32L94.2 90.02C93.98 90.22 93.88 90.54 93.95 90.83L94.19 91.89L93.3 91.32C93.04 91.16 92.73 91.16 92.47 91.32L91.59 91.89L91.83 90.84C91.89 90.54 91.8 90.22 91.57 90.02L90.78 89.32L91.82 89.23C92.11 89.21 92.37 89.01 92.49 88.73L92.88 87.73ZM61.28 93.89C60.2 93.89 60.2 95.5 61.28 95.5L72.62 95.5C73.71 95.5 73.71 93.89 72.62 93.89L61.28 93.89ZM98.84 95.31L103.34 103.04L100.81 102.38C100.38 102.27 99.94 102.52 99.83 102.95L99.14 105.46L94.63 97.72C96.28 97.35 97.74 96.51 98.84 95.31ZM86.96 95.35C88.07 96.53 89.54 97.38 91.18 97.73L86.69 105.46L86 102.95C85.89 102.52 85.45 102.27 85.01 102.38L82.48 103.04L86.96 95.35ZM92.92 97.97L93.35 98.71L92.49 98.71L92.92 97.97Z" fill="#FFFFFF" fill-opacity="1.000000" fill-rule="nonzero"/>
</svg>
