<svg width="157.000000" height="162.709106" viewBox="0 0 157 162.709" fill="none" xmlns="http://www.w3.org/2000/svg" xmlns:xlink="http://www.w3.org/1999/xlink">
	<desc>
			Created with Pixso.
	</desc>
	<defs>
		<linearGradient x1="81.139389" y1="26.000000" x2="81.139389" y2="138.278778" id="paint_linear_6_48_0" gradientUnits="userSpaceOnUse">
			<stop stop-color="#040A57"/>
			<stop offset="1.000000" stop-color="#3A23E6"/>
		</linearGradient>
	</defs>
	<g opacity="0.100000">
		<circle id="Ellipse 13" cx="100.861328" cy="106.569702" r="56.139393" fill="#07086C" fill-opacity="1.000000"/>
	</g>
	<g opacity="0.100000">
		<circle id="Ellipse 14" cx="53.285156" cy="97.054504" r="53.284847" fill="#07086C" fill-opacity="1.000000"/>
	</g>
	<g opacity="0.100000">
		<circle id="Ellipse 15" cx="90.394531" cy="53.284851" r="53.284847" fill="#07086C" fill-opacity="1.000000"/>
	</g>
	<circle id="Ellipse 12" cx="81.139648" cy="82.139404" r="56.139393" fill="#07086C" fill-opacity="1.000000"/>
	<circle id="Ellipse 12" cx="81.139648" cy="82.139404" r="56.139393" fill="url(#paint_linear_6_48_0)" fill-opacity="1.000000"/>
	<path id="Vector" d="M105.52 69.15L81.38 57.09C81.26 57.03 81.13 57 81 57C80.86 57 80.73 57.03 80.61 57.09L56.47 69.15C56.33 69.23 56.21 69.34 56.12 69.47C56.04 69.61 56 69.77 56 69.93L56 94.06C55.99 94.23 56.04 94.38 56.12 94.52C56.21 94.66 56.33 94.77 56.47 94.84L80.61 106.91C80.73 106.97 80.86 107 81 107C81.13 107 81.26 106.97 81.38 106.91L105.52 94.84C105.66 94.77 105.78 94.66 105.87 94.52C105.95 94.38 106 94.23 106 94.06L106 69.93C106 69.77 105.95 69.61 105.87 69.47C105.78 69.34 105.66 69.23 105.52 69.15ZM81 81.03L74.26 77.66L95.8 66.22L103.21 69.93L81 81.03ZM67.36 74.21L88.9 62.77L93.9 65.27L72.36 76.72L67.36 74.21ZM66.34 75.63L71.51 78.22L71.51 85.09L69.54 83.11C69.37 82.95 69.15 82.86 68.93 82.86L66.34 82.86L66.34 75.63ZM81 58.82L87.01 61.82L65.47 73.27L58.79 69.93L81 58.82ZM57.72 71.32L64.62 74.77L64.62 83.72C64.62 83.95 64.71 84.17 64.87 84.33C65.03 84.49 65.25 84.58 65.48 84.58L68.57 84.58L71.76 87.78C71.89 87.9 72.04 87.98 72.21 88.01C72.37 88.05 72.55 88.03 72.7 87.96C72.86 87.9 73 87.79 73.09 87.65C73.19 87.5 73.24 87.34 73.24 87.17L73.24 79.08L80.13 82.53L80.13 104.74L57.72 93.53L57.72 71.32ZM81.86 104.74L81.86 82.53L104.27 71.32L104.27 93.53L81.86 104.74Z" fill="#FFFFFF" fill-opacity="1.000000" fill-rule="nonzero"/>
</svg>
