<svg width="157.000000" height="162.709076" viewBox="0 0 157 162.709" fill="none" xmlns="http://www.w3.org/2000/svg" xmlns:xlink="http://www.w3.org/1999/xlink">
	<desc>
			Created with Pixso.
	</desc>
	<defs>
		<linearGradient x1="80.878647" y1="25.690918" x2="80.878647" y2="137.969696" id="paint_linear_6_72_0" gradientUnits="userSpaceOnUse">
			<stop stop-color="#040A57"/>
			<stop offset="1.000000" stop-color="#3A23E6"/>
		</linearGradient>
	</defs>
	<g opacity="0.100000">
		<circle id="Ellipse 13" cx="100.861328" cy="106.569702" r="56.139393" fill="#07086C" fill-opacity="1.000000"/>
	</g>
	<g opacity="0.100000">
		<circle id="Ellipse 14" cx="53.285156" cy="97.054504" r="53.284847" fill="#07086C" fill-opacity="1.000000"/>
	</g>
	<g opacity="0.100000">
		<circle id="Ellipse 15" cx="90.394531" cy="53.284851" r="53.284847" fill="#07086C" fill-opacity="1.000000"/>
	</g>
	<circle id="Ellipse 12" cx="80.878906" cy="81.830322" r="56.139393" fill="#07086C" fill-opacity="1.000000"/>
	<circle id="Ellipse 12" cx="80.878906" cy="81.830322" r="56.139393" fill="url(#paint_linear_6_72_0)" fill-opacity="1.000000"/>
	<path id="Vector" d="M55.58 90.97L68.85 90.97L68.85 103.47C68.85 104.85 69.97 105.97 71.35 105.97L91.35 105.97C92.73 105.97 93.85 104.85 93.85 103.47L93.85 83.47C93.85 82.09 92.73 80.97 91.35 80.97L78.85 80.97L78.85 67.7C78.85 67.23 78.67 66.79 78.33 66.46C78.01 66.14 77.58 65.97 77.12 65.97L56.35 65.97C54.97 65.97 53.85 67.09 53.85 68.47L53.85 89.24C53.85 89.7 54.04 90.15 54.37 90.48C54.7 90.79 55.13 90.97 55.58 90.97ZM75.52 90.97L76.35 90.97C77.73 90.97 78.85 89.85 78.85 88.47L78.85 87.63L87.19 87.63L87.19 99.3L75.52 99.3L75.52 90.97ZM77.19 88.47C77.19 88.93 76.81 89.3 76.35 89.3L58.9 89.3L77.19 71.01L77.19 88.47ZM91.35 82.63C91.81 82.63 92.19 83.01 92.19 83.47L92.19 103.47C92.19 103.93 91.81 104.3 91.35 104.3L71.35 104.3C70.89 104.3 70.52 103.93 70.52 103.47L70.52 90.97L73.85 90.97L73.85 99.3C73.85 100.22 74.6 100.97 75.52 100.97L87.19 100.97C88.11 100.97 88.85 100.22 88.85 99.3L88.85 87.63C88.85 86.71 88.11 85.97 87.19 85.97L78.85 85.97L78.85 82.63L91.35 82.63ZM77.19 67.7L77.19 68.66L56.54 89.3L55.58 89.3L55.52 89.24L55.52 87.97L75.85 67.63L77.12 67.63L77.19 67.7ZM56.35 67.63L73.49 67.63L55.52 85.61L55.52 68.47C55.52 68.01 55.89 67.63 56.35 67.63Z" fill="#FFFFFF" fill-opacity="1.000000" fill-rule="nonzero"/>
	<path id="Vector" d="M86.16 56.09C85.53 55.83 84.8 55.98 84.32 56.47L78.85 62.29C78.21 62.93 78.2 63.97 78.84 64.63L84.34 70.48C84.82 70.96 85.54 71.1 86.16 70.84C86.78 70.58 87.19 69.98 87.19 69.3L87.19 66.8L93.02 66.8L93.02 73.47L90.52 73.47C89.84 73.47 89.23 73.88 88.97 74.51C88.72 75.14 88.87 75.86 89.36 76.33L95.17 81.8C95.49 82.12 95.92 82.29 96.36 82.29C96.79 82.29 97.21 82.12 97.51 81.82L103.37 76.31C103.84 75.84 103.98 75.12 103.73 74.5C103.47 73.87 102.86 73.47 102.19 73.47L99.69 73.47L99.69 62.63C99.69 61.25 98.57 60.13 97.19 60.13L87.19 60.13L87.19 57.63C87.19 56.96 86.78 56.35 86.16 56.09ZM97.19 61.8C97.65 61.8 98.02 62.17 98.02 62.63L98.02 74.3C98.02 74.76 98.39 75.13 98.85 75.13L102.21 75.12L96.33 80.6L90.52 75.13L93.85 75.13C94.31 75.13 94.69 74.76 94.69 74.3L94.69 66.8C94.69 65.88 93.94 65.13 93.02 65.13L86.35 65.13C85.89 65.13 85.52 65.51 85.52 65.97L85.54 69.32L80.05 63.45L85.52 57.63L85.52 60.97C85.52 61.43 85.89 61.8 86.35 61.8L97.19 61.8Z" fill="#FFFFFF" fill-opacity="1.000000" fill-rule="nonzero"/>
</svg>
