<svg width="14.000000" height="11.000000" viewBox="0 0 14 11" fill="none" xmlns="http://www.w3.org/2000/svg" xmlns:xlink="http://www.w3.org/1999/xlink">
	<desc>
			Created with Pixso.
	</desc>
	<defs>
		<linearGradient x1="6.999999" y1="0.000000" x2="6.999999" y2="11.000000" id="paint_linear_5_4415_0" gradientUnits="userSpaceOnUse">
			<stop stop-color="#48FFFF"/>
			<stop offset="0.963205" stop-color="#25A4F1"/>
		</linearGradient>
	</defs>
	<path id="check" d="M0.16 6.05C0.05 5.93 0 5.77 0 5.66C0 5.55 0.05 5.39 0.16 5.28L0.91 4.51C1.13 4.29 1.45 4.29 1.66 4.51L1.72 4.56L4.68 7.81C4.79 7.92 4.95 7.92 5.06 7.81L12.27 0.16L12.33 0.16C12.54 -0.06 12.86 -0.06 13.08 0.16L13.83 0.93C14.05 1.15 14.05 1.48 13.83 1.7L5.22 10.83C5.11 10.94 5 11 4.84 11C4.68 11 4.57 10.94 4.46 10.83L0.26 6.21L0.16 6.05Z" fill="url(#paint_linear_5_4415_0)" fill-opacity="1.000000" fill-rule="nonzero"/>
</svg>
